<svg xmlns="http://www.w3.org/2000/svg" xmlns:xlink="http://www.w3.org/1999/xlink" viewBox="0 0 64 64"><defs><style>.cls-1{fill:#f0f7fc;}.cls-2{fill:#54a5ff;}.cls-3{fill:url(#linear-gradient);}.cls-4{fill:url(#linear-gradient-2);}.cls-5{fill:url(#linear-gradient-3);}.cls-6{fill:#d7e9f7;}</style><linearGradient id="linear-gradient" x1="15" y1="59.5" x2="49" y2="59.5" gradientUnits="userSpaceOnUse"><stop offset="0" stop-color="#54a5ff"/><stop offset="1" stop-color="#8ad3fe"/></linearGradient><linearGradient id="linear-gradient-2" x1="3" y1="43" x2="61" y2="43" xlink:href="#linear-gradient"/><linearGradient id="linear-gradient-3" x1="18" y1="20" x2="46" y2="20" gradientUnits="userSpaceOnUse"><stop offset="0" stop-color="#fe9661"/><stop offset="1" stop-color="#ffb369"/></linearGradient></defs><title>Precentage</title><g id="Precentage"><rect class="cls-1" x="3" y="1" width="58" height="48" rx="7"/><path class="cls-2" d="M42,47.78A1,1,0,0,0,41,47H23a1,1,0,0,0-1,.78l-2,9a1,1,0,0,0,.2.85A1,1,0,0,0,21,58H43a1,1,0,0,0,.78-.37,1,1,0,0,0,.2-.85Z"/><path class="cls-3" d="M43,56H21a6,6,0,0,0-6,6,1,1,0,0,0,1,1H48a1,1,0,0,0,1-1A6,6,0,0,0,43,56Z"/><path class="cls-4" d="M60,37H4a1,1,0,0,0-1,1v4a7,7,0,0,0,7,7H54a7,7,0,0,0,7-7V38A1,1,0,0,0,60,37Z"/><path class="cls-1" d="M33,42H31a1,1,0,0,0,0,2h2a1,1,0,0,0,0-2Z"/><circle class="cls-5" cx="32" cy="20" r="14"/><path class="cls-6" d="M37,12.52a1,1,0,0,0-1.38.27L26.72,26.1A1,1,0,0,0,27,27.48a.94.94,0,0,0,.55.17,1,1,0,0,0,.83-.44l8.9-13.31A1,1,0,0,0,37,12.52Z"/><path class="cls-6" d="M29.49,18.67h0a3,3,0,0,0-.83-4.16,3,3,0,0,0-4.16.82,3,3,0,0,0,.82,4.16A2.93,2.93,0,0,0,27,20,3,3,0,0,0,29.49,18.67Z"/><path class="cls-6" d="M38.67,20.51a3,3,0,0,0-4.16.82,3,3,0,0,0,.82,4.16A2.93,2.93,0,0,0,37,26a3,3,0,0,0,2.49-1.33h0A3,3,0,0,0,38.67,20.51Z"/></g></svg>